<svg width="100" height="26" viewBox="0 0 100 26" fill="none" xmlns="http://www.w3.org/2000/svg">
<g clip-path="url(#clip0_2101_95)">
<path d="M71.3686 6.5H78.0575C79.0845 6.5 79.9145 5.65819 79.9145 4.6165V0H62.8228V6.5H71.3686Z" fill="#FCF6F6"/>
<path d="M18.4485 2.42549C16.7696 0.807215 14.3631 0 11.2252 0H0V6.53844H10.4824C12.1461 6.53844 12.9799 7.33412 12.9799 8.92549C12.9799 10.5169 12.1461 11.3125 10.4824 11.3125H0V26.0038H8.03805V18.5544C8.03805 18.1047 8.39808 17.7395 8.84147 17.7395H11.2252C13.302 17.7395 15.068 17.3474 16.5309 16.5633C17.9899 15.7791 19.0965 14.7221 19.8431 13.3882C20.5897 12.0544 20.9649 10.5668 20.9649 8.92549C20.9649 6.20786 20.1273 4.03992 18.4485 2.42549Z" fill="#FCF6F6"/>
<path d="M23.5 0H31.5381V8.03755C31.5381 8.9524 30.8066 9.69426 29.9047 9.69426H25.1372C24.2352 9.69426 23.5038 8.9524 23.5038 8.03755V0H23.5Z" fill="#FCF6F6"/>
<path d="M26.3385 10.3554H28.6995C30.2647 10.3554 31.5381 11.647 31.5381 13.2345V26H23.5V13.2345C23.5 11.647 24.7734 10.3554 26.3385 10.3554Z" fill="#FCF6F6"/>
<path d="M52.5144 13.1461L60.3591 0H51.692L35.1763 26H43.8472L47.546 19.2425L51.999 26H61.011L52.5144 13.1461Z" fill="#FCF6F6"/>
<path d="M43.1121 0H33.6377L41.5128 9.85571C42.032 10.5053 43.4001 11.1434 44.2225 10.0402L46.6327 6.50384C47.0269 5.65435 47.1406 4.90095 46.4432 4.05529L43.1121 0Z" fill="#FCF6F6"/>
<path d="M62.8228 26H79.9145V21.2567C79.9145 20.288 79.1376 19.5 78.1826 19.5H62.8228V26Z" fill="#FCF6F6"/>
<path d="M62.8228 15.8291H77.0419C78.0272 15.8291 78.8268 15.018 78.8268 14.0186V9.69427H62.8228V15.8291Z" fill="#FCF6F6"/>
<path d="M90.9917 0H82.9536V26H90.8704L90.9917 0Z" fill="#FCF6F6"/>
<path d="M100 19.8306H94.6376C93.6978 19.8306 92.936 20.6032 92.936 21.5565V26H100V19.8306Z" fill="#FCF6F6"/>
</g>
<defs>
<clipPath id="clip0_2101_95">
<rect width="100" height="26" fill="white"/>
</clipPath>
</defs>
</svg>
